<svg xmlns="http://www.w3.org/2000/svg" width="2.9in" height="3.7in" data-name="Layer 1" viewBox="0 0 207.3 268.7"><ellipse cx="103.7" cy="158.2" fill="#f6c53c" rx="103.7" ry="110.6"/><path fill="#fff" d="M178 261c-13.4 0-42.1 0-44.9-6.4s6.3-32.1 6.6-32.8l-4.9 6c-7.4 9-15.6 6.2-24.6-4.3-11.1 32-20.3 35.3-36.2 31.4s-29.6-10.3-27.6-21.5 17.8-17.8 22.3-44.9c5.9-35.8 14.6-52.7 20.3-58.2l1.3-.9h-.2l1-.6a112.5 112.5 0 0 0 15.7 6.3c23.7 7.8 38.5 2.5 54.7-18.1q1.4-1.8 2.5-3.5c4.8 6.4 17.1 38.7 13.1 66.5s5.6 40.4 7.5 53.4 6.8 27.6-6.6 27.6z"/><path fill="#0f6da0" d="M178 261c-6.7 0-13.3 0-20-.3-3.3-.2-6.7-.4-10-.8a55 55 0 0 1-9.8-1.9 11.4 11.4 0 0 1-4.4-2.3 3.9 3.9 0 0 1-1.1-2.3 12.7 12.7 0 0 1-.2-2.5 52.1 52.1 0 0 1 1.4-9.9 193.6 193.6 0 0 1 5.6-19.2l.3.2-2.9 3.7c-1 1.2-1.9 2.5-3 3.6s-1.2 1.1-1.7 1.6l-1 .7-.5.3-.5.3a9.8 9.8 0 0 1-4.6 1.3 10.9 10.9 0 0 1-4.7-.9l-1.1-.5-1-.6a22.6 22.6 0 0 1-2-1.3 42.5 42.5 0 0 1-6.8-6.5h.7l-2.2 6.1-1.2 3-1.2 3-1.3 3-1.5 2.9a32.4 32.4 0 0 1-1.6 2.8 27.3 27.3 0 0 1-1.8 2.7c-2.5 3.5-5.7 6.8-9.9 8.5a18.8 18.8 0 0 1-6.5 1.2 32.9 32.9 0 0 1-6.5-.6 99.4 99.4 0 0 1-12.5-3.4 48.1 48.1 0 0 1-11.8-5.6 19.8 19.8 0 0 1-4.8-4.6 12.1 12.1 0 0 1-2.4-6.4 11.6 11.6 0 0 1 .3-3.4l.4-1.7.6-1.6a30.2 30.2 0 0 1 3.4-5.7c2.6-3.5 5.3-6.8 7.7-10.3a57.6 57.6 0 0 0 6-11.1 61.7 61.7 0 0 0 3.5-12.2c.8-4.2 1.5-8.5 2.3-12.7s1.8-8.4 2.8-12.6 2.3-8.3 3.7-12.4a106.5 106.5 0 0 1 4.9-12c.5-1 1-2 1.5-2.9l.8-1.4.9-1.4a28.2 28.2 0 0 1 4.1-5.2h.1l1.5-1v1.7h-.2l-1.5-.8 1.4-.9 1.1-.7.4-.3.5.2a93.1 93.1 0 0 0 9.5 4.1c3.2 1.2 6.6 2.3 9.9 3.3l5 1.2c1.7.3 3.4.7 5.1.8a38.2 38.2 0 0 0 10.2-.2 32.3 32.3 0 0 0 9.7-3.1 42.2 42.2 0 0 0 8.6-5.6l2-1.7 1.9-1.8 1.8-1.8 1.8-1.9c1.2-1.3 2.2-2.6 3.4-4s2.1-2.8 3.1-4.2l.5-.7.5.7a32.3 32.3 0 0 1 2.5 4.4c.7 1.5 1.4 3 2 4.5 1.2 3.1 2.3 6.2 3.3 9.3a139.1 139.1 0 0 1 4.5 19.2 111.1 111.1 0 0 1 1.4 19.6c0 6.6-1.5 13-1.8 19.5a73.9 73.9 0 0 0 1.5 19.5 97.1 97.1 0 0 0 2.6 9.4c1 3.1 2.1 6.2 3 9.3a79.1 79.1 0 0 1 1.9 9.6c.6 3.2 1.2 6.4 1.5 9.7a34.6 34.6 0 0 1 .2 4.9 13.2 13.2 0 0 1-1 4.8 6.7 6.7 0 0 1-3.4 3.4 11.4 11.4 0 0 1-4.9.9zm0 0a11.4 11.4 0 0 0 4.8-.9 6.6 6.6 0 0 0 3.3-3.4 13.1 13.1 0 0 0 1-4.8 34.5 34.5 0 0 0-.2-4.9c-.4-3.2-1-6.5-1.5-9.7a78.9 78.9 0 0 0-2-9.6c-.9-3.1-2-6.2-3.1-9.3a97.4 97.4 0 0 1-2.6-9.5 75.3 75.3 0 0 1-1.6-19.5c.2-6.6 1.7-13 1.6-19.5a110.4 110.4 0 0 0-1.6-19.5 138.2 138.2 0 0 0-4.6-19c-1-3.1-2.1-6.2-3.3-9.2-.6-1.5-1.3-3-2-4.4a31.4 31.4 0 0 0-2.4-4.1h1c-1 1.4-2 2.9-3.1 4.3s-2.2 2.8-3.4 4.1l-1.8 2-1.8 1.9-1.9 1.9-2 1.8a43.7 43.7 0 0 1-8.8 5.9 34 34 0 0 1-10.1 3.3 38.8 38.8 0 0 1-10.7.3c-1.8-.1-3.5-.5-5.3-.8l-5.2-1.2c-3.4-1-6.7-2.1-10-3.3a94.9 94.9 0 0 1-9.7-4.2h.9l-.9.5v-1.7h.2l1.7.9-1.7.9-1.2.8h.1a26.2 26.2 0 0 0-3.8 4.9l-.8 1.3-.8 1.4c-.5.9-1 1.9-1.4 2.8a104.5 104.5 0 0 0-4.7 11.8 209.5 209.5 0 0 0-6.9 24.7c-.9 4.2-1.5 8.4-2.4 12.6a63.7 63.7 0 0 1-3.7 12.5 59.5 59.5 0 0 1-6.2 11.5c-2.4 3.6-5.2 6.9-7.8 10.3a28.5 28.5 0 0 0-3.2 5.3l-.6 1.4-.4 1.5a10 10 0 0 0-.3 3 10.3 10.3 0 0 0 2 5.5 18.2 18.2 0 0 0 4.4 4.3 46.6 46.6 0 0 0 11.3 5.6 98.1 98.1 0 0 0 12.3 3.4c4.1.8 8.5 1.1 12.3-.4s7-4.6 9.4-8a26.5 26.5 0 0 0 1.8-2.6 31.6 31.6 0 0 0 1.6-2.8l1.5-2.8 1.3-2.9c.5-1 .9-1.9 1.3-2.9l1.2-3 2.2-6 .2-.6.4.5a41.8 41.8 0 0 0 6.7 6.5 22 22 0 0 0 1.9 1.3l1 .6 1 .5a10.3 10.3 0 0 0 4.4.9 9.2 9.2 0 0 0 4.3-1.2l.5-.3.5-.3.9-.7c.6-.5 1.2-1 1.7-1.6s2-2.3 3-3.6l3-3.6.7-.8-.3 1a183.4 183.4 0 0 0-5.7 19.2 51.9 51.9 0 0 0-1.5 9.9 12.5 12.5 0 0 0 .2 2.5 3.7 3.7 0 0 0 1 2.2 11.2 11.2 0 0 0 4.3 2.3 54.8 54.8 0 0 0 9.8 1.9c3.3.4 6.6.6 10 .8 7 0 13.7.1 20.3.1z"/><path fill="#fff" d="M90.3 129c-5.4 2.7-15.8 19-22.5 59.8-3 18.1-11 27-16.6 34.3-6.5-.2-7.1-4.7-3.7-10.6s8.9-22 5.3-38.2c0-45.7 23.3-46.7 28.3-51.6a38.4 38.4 0 0 0 9.2 6.3z"/><path fill="#0f6da0" d="M90.3 129a15.7 15.7 0 0 0-4.5 4.5l-1.8 2.7c-.5.9-1.1 1.9-1.6 2.8a87.4 87.4 0 0 0-5 11.9 189.2 189.2 0 0 0-6.7 25c-.4 2.1-.8 4.2-1.2 6.4l-1.1 6.4a67.9 67.9 0 0 1-3.2 12.7 60.5 60.5 0 0 1-5.9 11.6c-2.3 3.7-5.1 7.1-7.7 10.5l-.2.3h-.3a9.7 9.7 0 0 1-3.6-.7 4.6 4.6 0 0 1-2.6-2.8 6.8 6.8 0 0 1 0-3.7 16.3 16.3 0 0 1 1.2-3.3c.6-1.1 1.1-2 1.6-3l.7-1.5.6-1.5a56.1 56.1 0 0 0 2.1-6.3 61.3 61.3 0 0 0 2-13.2 51.5 51.5 0 0 0-1.1-13.3 98.9 98.9 0 0 1 1.2-15.8 58.9 58.9 0 0 1 4.4-15.2 34.6 34.6 0 0 1 9.6-12.6 39.3 39.3 0 0 1 6.7-4.3l3.5-1.7a14.2 14.2 0 0 0 3.3-2h.2a39.7 39.7 0 0 0 9.4 6.1zm0 0a38.5 38.5 0 0 1-9.4-6.2h.2a14.5 14.5 0 0 1-3.3 2.2l-3.5 1.8a38.7 38.7 0 0 0-6.5 4.3 34.3 34.3 0 0 0-9.2 12.4 57.9 57.9 0 0 0-4.2 15 107.2 107.2 0 0 0-1 15.7 52.7 52.7 0 0 1 1.2 13.6 62.7 62.7 0 0 1-2 13.5 57.4 57.4 0 0 1-2.1 6.5l-.6 1.6-.7 1.6c-.5 1-1.1 2.1-1.6 3a15.6 15.6 0 0 0-1.1 3 5.5 5.5 0 0 0 0 3 3.3 3.3 0 0 0 1.8 2 8.4 8.4 0 0 0 3 .6l-.5.3c2.7-3.4 5.4-6.8 7.7-10.4a59.2 59.2 0 0 0 5.7-11.4 68.5 68.5 0 0 0 3.2-12.4l1.2-6.4c.4-2.1.9-4.2 1.3-6.4a182.1 182.1 0 0 1 7.1-25 87.9 87.9 0 0 1 5.3-11.8c.5-1 1.1-1.9 1.6-2.8l1.8-2.7a15.8 15.8 0 0 1 4.6-4.6z"/><path fill="#fff" stroke="#0f6da0" stroke-miterlimit="10" stroke-width="2.12" d="M107.4 11.3c11.1-2.9 40.4-8.4 51.3 7.8s9.5 39.6 6.7 53.5 11.4 23.1-4.7 43.8-31 25.9-54.7 18.1-29-14.5-31.5-24.3c-2.1-8.1.3-20.4-7.8-32.1s-34.3-47.3 40.7-66.8z"/><path fill="#fff" d="M191 27C179.5-7.3 150 1.4 142.5 8.8c6.8 1.4 12.9 4.4 16.7 10.1 10.9 16.2 9.5 39.6 6.7 53.5-1.3 6.6 1.1 12.1 2.4 18.2a6.7 6.7 0 0 0 2.9 1.9c11.4 2.8 19.8-2.8 19.8-15.9s11.5-15.3 0-49.6z"/><path fill="#0f6da0" d="M190.9 27a43.8 43.8 0 0 0-7.2-13.6 27.6 27.6 0 0 0-12.2-8.9 29.6 29.6 0 0 0-14.9-1.1 33.7 33.7 0 0 0-7.2 2.1 21.8 21.8 0 0 0-6.3 3.9l-.5-1.4a31.3 31.3 0 0 1 11 4.6 22.2 22.2 0 0 1 4.4 4 37.6 37.6 0 0 1 3.2 5 61.5 61.5 0 0 1 6.5 22.5 84.9 84.9 0 0 1 .5 11.8 103.2 103.2 0 0 1-.9 11.8c-.1 1-.3 2-.4 2.9s-.3 2-.5 2.9a20.1 20.1 0 0 0 .1 5.6c.5 3.7 1.8 7.4 2.7 11.3l-.3-.5a7.4 7.4 0 0 0 1.8 1.4l1 .3 1.2.2a19.1 19.1 0 0 0 5 .2 17.3 17.3 0 0 0 2.4-.4 13.6 13.6 0 0 0 2.3-.9 10.5 10.5 0 0 0 3.7-3 13.5 13.5 0 0 0 2.3-4.3l.2-.6v-.6l.3-1.2c.1-.8.3-1.7.3-2.5V76a18.8 18.8 0 0 1 .3-2.8l.2-1.4.4-1.3c.2-.9.6-1.7.8-2.6a61.4 61.4 0 0 0 3.2-9.9 40.3 40.3 0 0 0 .5-10.4 89.5 89.5 0 0 0-3.9-20.6zm.2-.1l1.6 5.1 1.5 5.1.4 1.3.3 1.3.6 2.6c.2.9.3 1.7.5 2.6s.3 1.8.4 2.6a42.5 42.5 0 0 1 0 10.7 54.6 54.6 0 0 1-2.8 10.3c-.2.8-.5 1.6-.7 2.5l-.3 1.2-.2 1.2a18.2 18.2 0 0 0-.2 2.5v2.7l-.3 2.7-.3 1.4-.2.7-.2.7a14.9 14.9 0 0 1-2.7 5 12.8 12.8 0 0 1-4.5 3.6 15.9 15.9 0 0 1-2.7 1 17.7 17.7 0 0 1-2.8.4 21.3 21.3 0 0 1-5.6-.3l-1.3-.3a5.3 5.3 0 0 1-1.5-.5 9.4 9.4 0 0 1-2.4-1.8l-.2-.2v-.3c-.7-3.7-2-7.5-2.5-11.5a22 22 0 0 1 .1-6.1c.2-1 .4-1.9.6-2.9s.3-1.9.5-2.9a94.5 94.5 0 0 0 .8-23.1 66.7 66.7 0 0 0-2-11.5 49 49 0 0 0-4.4-10.7 32 32 0 0 0-3.3-4.7 21 21 0 0 0-4.4-3.7 29.9 29.9 0 0 0-10.7-4l-1.6-.3 1.2-1.1a22.4 22.4 0 0 1 6.8-4.4 33.1 33.1 0 0 1 7.6-2.3A27.8 27.8 0 0 1 184.1 13a41.9 41.9 0 0 1 4 6.7 59.6 59.6 0 0 1 3 7.2z"/><path fill="#fff" d="M74 110.3c-2.1-8.1.3-20.4-7.8-32.1C61.9 72 50.3 56 58.2 40a5.8 5.8 0 0 0-1.8-.3c-7.1 0-24.3 17-20.1 36.5S39.4 122 55 122c13.8 0 19.9-4.5 21.2-5.6a27.8 27.8 0 0 1-2.2-6.1z"/><path fill="#0f6da0" d="M74 110.3a58.1 58.1 0 0 1-1.2-9.2 73 73 0 0 0-1.2-9.2 36.6 36.6 0 0 0-2.9-8.9 59 59 0 0 0-5-7.8 66.8 66.8 0 0 1-4.7-8 40.2 40.2 0 0 1-3.3-8.8 31.5 31.5 0 0 1-.8-9.5 29.5 29.5 0 0 1 2.5-9.2l.5 1.2a4.9 4.9 0 0 0-3.2.1 13.8 13.8 0 0 0-3.2 1.6 29.7 29.7 0 0 0-5.5 4.9 37.4 37.4 0 0 0-7.6 12.8 31.7 31.7 0 0 0-1.6 7.2 29.8 29.8 0 0 0 .2 7.4c.2 1.2.5 2.5.7 3.8s.4 2.5.6 3.8.7 5.1 1 7.6c.6 5.1 1.2 10.2 2.3 15.1a48.1 48.1 0 0 0 2.1 7.3 18 18 0 0 0 3.9 6.4 10.1 10.1 0 0 0 6.7 3 49.1 49.1 0 0 0 7.6-.3 38.3 38.3 0 0 0 7.5-1.6 22.1 22.1 0 0 0 6.8-3.5 27.9 27.9 0 0 1-2.2-6.2zm0 0a27.9 27.9 0 0 0 2.3 6.1 22.1 22.1 0 0 1-6.8 3.5 38.8 38.8 0 0 1-7.5 1.8 54.8 54.8 0 0 1-7.7.5 10.7 10.7 0 0 1-7.1-2.9 18.7 18.7 0 0 1-4.3-6.5 49.1 49.1 0 0 1-2.3-7.4c-1.2-5-2-10.1-2.8-15.2s-1.6-10-2.7-15.1a31 31 0 0 1 1.3-15.6 38.4 38.4 0 0 1 8-13.4 29.9 29.9 0 0 1 6-5.1 15.6 15.6 0 0 1 3.7-1.8 7.7 7.7 0 0 1 2.1-.4 6.4 6.4 0 0 1 2.2.4l1 .3-.4.9a27.9 27.9 0 0 0-2.6 8.6 30.2 30.2 0 0 0 .5 9.1 39.2 39.2 0 0 0 2.9 8.7 66 66 0 0 0 4.5 8.1 59.4 59.4 0 0 1 4.8 8 37.3 37.3 0 0 1 2.8 8.9 85.8 85.8 0 0 1 1.1 9.3 58.1 58.1 0 0 0 1 9.2zm12.5 57.5a14.6 14.6 0 0 0-1 5.5 24.4 24.4 0 0 0 .6 5.5 53.1 53.1 0 0 0 3.6 10.5 101.1 101.1 0 0 0 5.1 9.9c1.8 3.2 3.8 6.4 5.8 9.5s4.2 6.2 6.4 9.1a62.3 62.3 0 0 0 7.3 8.2 28.5 28.5 0 0 0 4.2 3.2 12.1 12.1 0 0 0 4.6 1.8c3.1.5 6.1-1.1 8.4-3.6l.9-1 .9-1.1 1.8-2.2 3.5-4.4c2.3-2.9 4.6-5.9 6.8-8.9q6.7-9 12.6-18.5c2-3.2 3.8-6.4 5.5-9.7a92.2 92.2 0 0 0 4.5-10.2 52 52 0 0 0 2.9-10.7 27.6 27.6 0 0 0-.5-11.1 26.4 26.4 0 0 1 1.4 11.2 51.1 51.1 0 0 1-2.2 11.2 108.2 108.2 0 0 1-9.2 20.8 210.2 210.2 0 0 1-12.3 19.1c-2.2 3.1-4.5 6.1-6.8 9.1l-3.5 4.4-1.8 2.2-.9 1.1-1 1.1a16.3 16.3 0 0 1-5 3.7 11.8 11.8 0 0 1-3.2.9 11.6 11.6 0 0 1-3.3 0 15.5 15.5 0 0 1-5.9-2.3 28.8 28.8 0 0 1-4.7-3.7 65.3 65.3 0 0 1-7.5-8.8c-2.3-3.1-4.3-6.3-6.3-9.5A127.9 127.9 0 0 1 88 189.8a51.8 51.8 0 0 1-3-11c-.3-3.6-.2-7.7 1.5-11z"/><ellipse cx="96" cy="79.5" fill="#0f6da0" rx="7.7" ry="9.8"/><circle cx="95" cy="74.7" r="2.4" fill="#fff"/><ellipse cx="132.1" cy="70.3" fill="#0f6da0" rx="7.7" ry="9.8" transform="rotate(-7.8 132.267 70.174)"/><circle cx="130.4" cy="65.8" r="2.4" fill="#fff" transform="rotate(-7.8 130.367 65.624)"/><ellipse cx="120.4" cy="98.4" fill="#0f6da0" rx="8.1" ry="9.1"/><path fill="#fff" d="M118.8 93.6c-1.7 1.7-3.9 5.7-4.3 2.2s3.9-5.4 5.8-5.4 4.2 1 1.8 1.7a9.1 9.1 0 0 0-3.3 1.5z"/><path fill="#0f6da0" d="M100.2 112.3a34.4 34.4 0 0 0 4.4 4.8 35.4 35.4 0 0 0 5.1 3.9 23 23 0 0 0 5.7 2.6 13.7 13.7 0 0 0 6.1.4l9.4-1.7-8.8 3.7a51.7 51.7 0 0 1-8 2.8 16.3 16.3 0 0 1-4.4.5 9 9 0 0 1-4.4-1.2 8.8 8.8 0 0 1-3.1-3.3 15.4 15.4 0 0 1-1.5-4.1 32.4 32.4 0 0 1-.5-8.4zm0 0a46.6 46.6 0 0 0 1.7 8.1c.8 2.5 2.2 5 4.4 6.1a7.3 7.3 0 0 0 3.6.8 17.3 17.3 0 0 0 3.8-.6 66.7 66.7 0 0 0 7.7-2.7l.6 2a14.4 14.4 0 0 1-7-.6 21.7 21.7 0 0 1-6.1-3.1 29.9 29.9 0 0 1-5-4.5 25.7 25.7 0 0 1-3.7-5.5zm63.5.7a27.8 27.8 0 0 1 4 6.3c.6 1.1 1.1 2.2 1.6 3.4s1 2.3 1.4 3.4a125.6 125.6 0 0 1 4.7 14.2l.9 3.6c.3 1.2.6 2.4.8 3.7s1 4.9 1.3 7.4a102.8 102.8 0 0 1 1.1 15 131.4 131.4 0 0 1-1.1 14.9 86.6 86.6 0 0 0-.1 14.6 72.2 72.2 0 0 0 2.6 14.3c1.3 4.7 3.1 9.3 4.6 14.2.2.6.3 1.2.5 1.9s.3 1.2.4 1.9l.3 1.9.3 1.8 1.2 7.3a61.2 61.2 0 0 1 .8 7.6 22.9 22.9 0 0 1-.2 4 11.7 11.7 0 0 1-1.3 4.1 8.3 8.3 0 0 1-3.2 3.2 10.9 10.9 0 0 1-4.2 1.2h-7.6c-5-.1-10-.2-14.9-.6a112.1 112.1 0 0 1-14.9-1.8l-3.7-.9a18.7 18.7 0 0 1-3.6-1.5 8.7 8.7 0 0 1-1.7-1.2l-.7-.9a4.4 4.4 0 0 1-.5-1.1 11.4 11.4 0 0 1-.4-4 46.5 46.5 0 0 1 1.2-7.5c.5-2.4 1.2-4.8 1.9-7.2 1.4-4.8 3.1-9.5 4.9-14.1q-2.2 7.1-3.9 14.3c-.6 2.4-1.1 4.8-1.5 7.2a45.1 45.1 0 0 0-.8 7.3 10 10 0 0 0 .4 3.3 3.9 3.9 0 0 0 2.1 2 16.8 16.8 0 0 0 3.3 1.2l3.5.8a117.4 117.4 0 0 0 14.6 1.3c4.9.2 9.9.2 14.8.2h7.2a7.7 7.7 0 0 0 2.9-.9 5 5 0 0 0 1.9-2 13.1 13.1 0 0 0 1-6.4 58 58 0 0 0-.8-7.2l-1.3-7.3-.3-1.9-.3-1.8c-.1-.6-.2-1.2-.4-1.7l-.5-1.7c-1.3-4.6-3.1-9.3-4.5-14.2a72.3 72.3 0 0 1-2.6-15 89.8 89.8 0 0 1 .4-15.1c.3-2.5.6-5 .9-7.4s.4-4.8.6-7.3a107.5 107.5 0 0 0-.7-14.7c-.2-2.4-.6-4.9-1-7.3s-.5-2.4-.7-3.6l-.3-1.8-.4-1.8a133 133 0 0 0-3.9-14.3c-.4-1.2-.8-2.3-1.2-3.5s-.9-2.3-1.4-3.4a27.6 27.6 0 0 0-3.5-6.4z"/></svg>