<svg id="Layer_1" data-name="Layer 1" xmlns="http://www.w3.org/2000/svg" width="1.4in" height="1.9in" viewBox="0 0 103.7 136"><title>logo-50</title><ellipse cx="51.8" cy="80.8" rx="51.8" ry="55.3" fill="#f6c53c"/><path d="M89,132.2c-6.7,0-21.1,0-22.5-3.2s3.2-16,3.3-16.4l-2.4,3c-3.7,4.5-7.8,3.1-12.3-2.2C49.6,129.4,45,131,37,129.1s-14.8-5.2-13.8-10.8,8.9-8.9,11.1-22.4C37.3,78,41.7,69.6,44.5,66.8h0l.7-.4h-.1l.5-.3a56.2,56.2,0,0,0,7.8,3.1c11.9,3.9,19.2,1.3,27.3-9.1l1.3-1.8c2.4,3.2,8.5,19.4,6.5,33.3s2.8,20.2,3.8,26.7S95.7,132.2,89,132.2Z" fill="#fff"/><path d="M89,132.2c-3.3,0-6.7,0-10-.2a43.9,43.9,0,0,1-9.9-1.3,5.7,5.7,0,0,1-2.2-1.2l-.4-.5-.2-.6a7,7,0,0,1-.1-1.3,26.4,26.4,0,0,1,.7-5,96.4,96.4,0,0,1,2.8-9.6h.2c-1,1.2-1.9,2.5-3,3.6a6,6,0,0,1-4.1,2.1,7.3,7.3,0,0,1-4.4-1.6,21.2,21.2,0,0,1-3.4-3.2h.3l-1.1,3c-.4,1-.8,2-1.2,3a32.4,32.4,0,0,1-3.1,5.7,11.5,11.5,0,0,1-4.9,4.3,12,12,0,0,1-6.5.3,49.3,49.3,0,0,1-6.3-1.7,24.1,24.1,0,0,1-5.9-2.8,10,10,0,0,1-2.4-2.3,5.8,5.8,0,0,1-1.2-3.2,7,7,0,0,1,.7-3.3,15.1,15.1,0,0,1,1.7-2.8c1.3-1.8,2.7-3.4,3.8-5.1a28.8,28.8,0,0,0,3-5.6c1.7-3.9,2.1-8.2,2.9-12.4a94.8,94.8,0,0,1,3.3-12.5,53.3,53.3,0,0,1,2.4-6,20.3,20.3,0,0,1,3.6-5.5h0l.8-.5v.9h-.1l-.8-.4.7-.4.6-.3h.4a58.6,58.6,0,0,0,9.7,3.7,30.1,30.1,0,0,0,5.1,1,19.1,19.1,0,0,0,5.1-.1,18.6,18.6,0,0,0,9.2-4.3,41.3,41.3,0,0,0,6.9-7.7l.3-.4.2.4a24.1,24.1,0,0,1,2.2,4.4c.6,1.5,1.2,3.1,1.6,4.6a69.5,69.5,0,0,1,2.2,9.6,55.6,55.6,0,0,1,.7,9.8c0,3.3-.8,6.5-.9,9.8a36.9,36.9,0,0,0,.7,9.7,48.5,48.5,0,0,0,1.3,4.7c.5,1.6,1.1,3.1,1.5,4.7a39.3,39.3,0,0,1,1,4.8c.3,1.6.6,3.2.7,4.8a9.8,9.8,0,0,1-.4,4.8,3.2,3.2,0,0,1-1.7,1.7h-.6l-.6.2Zm0,0h1.2l.6-.2h.6a3.2,3.2,0,0,0,1.7-1.7,9.7,9.7,0,0,0,.4-4.8c-.2-1.6-.5-3.2-.8-4.8a39.3,39.3,0,0,0-1-4.8c-.5-1.6-1-3.1-1.5-4.7a48.6,48.6,0,0,1-1.3-4.7,37.7,37.7,0,0,1-.8-9.8c.1-3.3.8-6.5.8-9.8a55.2,55.2,0,0,0-.8-9.7,69.1,69.1,0,0,0-2.3-9.5c-.5-1.6-1.1-3.1-1.7-4.6a23.7,23.7,0,0,0-2.2-4.3h.5a41.9,41.9,0,0,1-7,7.9,18.8,18.8,0,0,1-14.8,4.8,31,31,0,0,1-5.2-1,59.5,59.5,0,0,1-9.9-3.7h.4l-.4.3v-.8h.1l.7.4-.7.5-.6.4h0a19.4,19.4,0,0,0-3.4,5.2,52.3,52.3,0,0,0-2.4,5.9,104.7,104.7,0,0,0-3.2,12.4c-.4,2.1-.8,4.2-1.2,6.3a31.9,31.9,0,0,1-1.8,6.3,29.8,29.8,0,0,1-3.1,5.7c-1.2,1.8-2.6,3.5-3.9,5.2s-2.3,3.6-2.2,5.6,1.5,3.7,3.2,4.9a23.4,23.4,0,0,0,5.7,2.8,48.6,48.6,0,0,0,6.1,1.7,11.4,11.4,0,0,0,6.2-.2,10.9,10.9,0,0,0,4.7-4,31.9,31.9,0,0,0,3.1-5.6c.5-1,.8-2,1.2-3l1.1-3V113l.2.3a20.9,20.9,0,0,0,3.3,3.2,6.9,6.9,0,0,0,4.2,1.6,5.8,5.8,0,0,0,4-2c1-1.1,2-2.4,3-3.6l.3-.4-.2.5a91.3,91.3,0,0,0-2.8,9.6,26.3,26.3,0,0,0-.7,4.9,6.9,6.9,0,0,0,.1,1.2l.2.6.3.5a5.6,5.6,0,0,0,2.2,1.2A43.9,43.9,0,0,0,79,132C82.3,132.1,85.7,132.2,89,132.2Z" fill="#0f6da0"/><path d="M45.1,66.2c-2.7,1.4-7.9,9.5-11.3,29.9-1.5,9-5.5,13.5-8.3,17.2h0c-3.2-.1-3.5-2.4-1.9-5.3a29.7,29.7,0,0,0,2.7-19.1C26.3,66,38,65.5,40.5,63A19.2,19.2,0,0,0,45.1,66.2Z" fill="#fff"/><path d="M45.1,66.2a7.9,7.9,0,0,0-2.3,2.3,23,23,0,0,0-1.7,2.8,43.7,43.7,0,0,0-2.5,6,95.1,95.1,0,0,0-3.3,12.5c-.4,2.1-.8,4.2-1.2,6.4a34,34,0,0,1-1.6,6.3,30.3,30.3,0,0,1-2.9,5.9c-1.2,1.8-2.5,3.5-3.8,5.3h-.3a4.8,4.8,0,0,1-1.8-.4,2.3,2.3,0,0,1-1.3-1.4,3.4,3.4,0,0,1,0-1.9,8.2,8.2,0,0,1,.6-1.7,25.1,25.1,0,0,0,2.5-6.2A28.5,28.5,0,0,0,26,88.9h0v-4c.1-1.3.3-2.6.5-3.9a31.2,31.2,0,0,1,2.2-7.6A17.6,17.6,0,0,1,33.6,67,21,21,0,0,1,37,64.9,20.1,20.1,0,0,0,40.4,63h.1A19.5,19.5,0,0,0,45.1,66.2Zm0,0a19.6,19.6,0,0,1-4.7-3.1h.1a19.9,19.9,0,0,1-3.4,2,20.7,20.7,0,0,0-3.3,2.2,17.5,17.5,0,0,0-4.6,6.2A30.7,30.7,0,0,0,27.2,81c-.2,1.3-.3,2.6-.4,3.9v3.9h0a29.1,29.1,0,0,1-.4,13.5,25.8,25.8,0,0,1-2.5,6.3,4.4,4.4,0,0,0-.6,3c.3.9,1.4,1.3,2.4,1.3h-.3c1.3-1.7,2.7-3.4,3.8-5.2a29.6,29.6,0,0,0,2.9-5.7,34.2,34.2,0,0,0,1.6-6.2c.4-2.1.8-4.3,1.2-6.4A90.6,90.6,0,0,1,38.4,77,43.9,43.9,0,0,1,41,71.1a23.1,23.1,0,0,1,1.7-2.7A7.9,7.9,0,0,1,45.1,66.2Z" fill="#0f6da0"/><path d="M53.7,7.3c5.5-1.4,20.2-4.2,25.7,3.9S84.1,31,82.7,38s5.7,11.6-2.4,21.9S64.9,72.9,53,69,38.5,61.7,37.3,56.8s.1-10.2-3.9-16S16.2,17.1,53.7,7.3Z" fill="#fff" stroke="#0f6da0" stroke-miterlimit="10" stroke-width="1.06"/><path d="M95.5,15.2C89.7-2,75,2.4,71.2,6.1c3.4.7,6.4,2.2,8.4,5,5.4,8.1,4.7,19.8,3.3,26.8-.7,3.3.6,6,1.2,9.1a3.3,3.3,0,0,0,1.4.9c5.7,1.4,9.9-1.4,9.9-7.9S101.2,32.3,95.5,15.2Z" fill="#fff"/><path d="M95.4,15.2a22.4,22.4,0,0,0-3.6-6.8A14,14,0,0,0,85.7,4a14.5,14.5,0,0,0-7.4-.6,13.8,13.8,0,0,0-6.8,3l-.2-.7A15.6,15.6,0,0,1,76.8,8,11.1,11.1,0,0,1,79,10a19.5,19.5,0,0,1,1.6,2.5,30.8,30.8,0,0,1,3.3,11.3,49.1,49.1,0,0,1-.2,11.8c-.1,1-.3,2-.5,2.9a10.1,10.1,0,0,0,0,2.8c.3,1.9.9,3.7,1.3,5.7v-.3l.9.7,1.1.3a9.6,9.6,0,0,0,2.5.1,5.9,5.9,0,0,0,4.2-2.1A8.2,8.2,0,0,0,94.9,41V39.7a9.1,9.1,0,0,1,.1-1.4,14.5,14.5,0,0,1,.7-2.6,31,31,0,0,0,1.6-5,20.2,20.2,0,0,0,.3-5.2A45.8,45.8,0,0,0,95.4,15.2Zm.1,0a56.9,56.9,0,0,1,2.6,10.3,21.3,21.3,0,0,1,0,5.4,27,27,0,0,1-1.4,5.2,13.5,13.5,0,0,0-.6,2.5c-.1.8-.1,1.7-.2,2.6a9.3,9.3,0,0,1-1.8,5.2,6.9,6.9,0,0,1-5,2.5,10.7,10.7,0,0,1-2.8-.1,6.5,6.5,0,0,1-1.4-.4,4.7,4.7,0,0,1-1.2-.9h-.1v-.2c-.4-1.9-1-3.7-1.3-5.8a11,11,0,0,1,0-3c.2-1,.4-1.9.5-2.9a47.2,47.2,0,0,0,.6-11.6,33.4,33.4,0,0,0-1-5.7,25.5,25.5,0,0,0-2.2-5.4,15.5,15.5,0,0,0-1.6-2.4,10.5,10.5,0,0,0-2.2-1.8,14.9,14.9,0,0,0-5.3-2l-.8-.2.6-.6a14,14,0,0,1,7.2-3.3,14.4,14.4,0,0,1,7.8.8A14.6,14.6,0,0,1,92,8.2,26.2,26.2,0,0,1,95.5,15.1Z" fill="#0f6da0"/><path d="M37,56.8c-1-4.1.1-10.2-3.9-16-2.2-3.1-8-11.1-4-19.1l-.9-.2c-3.6,0-12.1,8.5-10,18.3s1.5,22.9,9.3,22.9,10-2.3,10.6-2.8A13.9,13.9,0,0,1,37,56.8Z" fill="#fff"/><path d="M37,56.8a29.1,29.1,0,0,1-.6-4.6,39.4,39.4,0,0,0-.6-4.6,18.2,18.2,0,0,0-1.4-4.4,29.5,29.5,0,0,0-2.5-3.9,25.7,25.7,0,0,1-4-8.4,15.7,15.7,0,0,1-.4-4.7,14.8,14.8,0,0,1,1.3-4.6l.3.6c-1-.4-2.2.2-3.2.8A14,14,0,0,0,23,25.4a18.8,18.8,0,0,0-3.8,6.4,15,15,0,0,0-.7,7.3c.2,1.2.5,2.5.7,3.8s.3,2.5.5,3.8.6,5.1,1.1,7.6,1.2,5,3,6.8a5.1,5.1,0,0,0,3.3,1.5,24,24,0,0,0,3.8-.2,19.2,19.2,0,0,0,3.7-.8,11,11,0,0,0,3.4-1.7h0A14,14,0,0,1,37,56.8Zm0,0a14,14,0,0,0,1.1,3h0a11.1,11.1,0,0,1-3.4,1.8,19.3,19.3,0,0,1-3.7.9l-3.8.2a5.3,5.3,0,0,1-3.6-1.4,9.3,9.3,0,0,1-2.1-3.2,24.5,24.5,0,0,1-1.2-3.7c-.6-2.5-1-5-1.4-7.6s-.8-5-1.3-7.5a16,16,0,0,1,.6-7.8,18.8,18.8,0,0,1,4-6.7,14.9,14.9,0,0,1,3-2.6,7.5,7.5,0,0,1,1.8-.9l1.1-.2,1.1.2.5.2-.2.5a14,14,0,0,0-1.3,4.3,15.1,15.1,0,0,0,.2,4.5,25.2,25.2,0,0,0,3.7,8.4,29.7,29.7,0,0,1,2.4,4,18.7,18.7,0,0,1,1.4,4.5,39.5,39.5,0,0,1,.5,4.6A29.1,29.1,0,0,0,37,56.8Z" fill="#0f6da0"/><path d="M43.3,85.5a7.3,7.3,0,0,0-.5,2.7,12.3,12.3,0,0,0,.3,2.8,25.9,25.9,0,0,0,1.8,5.3,67.5,67.5,0,0,0,5.5,9.7c1,1.6,2.1,3.1,3.2,4.6a29.9,29.9,0,0,0,3.7,4.1,9,9,0,0,0,4.4,2.5c1.6.3,3-.6,4.2-1.8s1.2-1.4,1.8-2.1l1.8-2.2,3.4-4.4c2.2-3,4.3-6.1,6.3-9.2a56.5,56.5,0,0,0,5-10c1.3-3.4,2.1-7.2,1.2-10.9a13,13,0,0,1,.7,5.6,26.1,26.1,0,0,1-1.1,5.6A56.7,56.7,0,0,1,80.2,98a101.4,101.4,0,0,1-6.1,9.5l-3.4,4.5-1.8,2.2c-.6.7-1.1,1.5-1.9,2.2l-.5.6-.6.5-.6.5-.7.4-.4.2h-.4l-.8.2H61.3a10.4,10.4,0,0,1-5.3-3,31.4,31.4,0,0,1-3.8-4.4c-1.1-1.5-2.2-3.1-3.1-4.8a67.1,67.1,0,0,1-5.1-10.1,26.5,26.5,0,0,1-1.5-5.5A9.3,9.3,0,0,1,43.3,85.5Z" fill="#0f6da0"/><ellipse cx="48" cy="41.4" rx="3.8" ry="4.9" fill="#0f6da0"/><circle cx="47.5" cy="39" r="1.2" fill="#fff"/><ellipse cx="66" cy="36.8" rx="3.8" ry="4.9" transform="translate(-4.4 9.3) rotate(-7.8)" fill="#0f6da0"/><circle cx="65.2" cy="34.6" r="1.2" transform="translate(-4.1 9.2) rotate(-7.8)" fill="#fff"/><ellipse cx="60.2" cy="50.9" rx="4" ry="4.6" fill="#0f6da0"/><path d="M59.4,48.4c-.8.8-2,2.9-2.1,1.1s2-2.7,2.9-2.7,2.1.5.9.8A4.5,4.5,0,0,0,59.4,48.4Z" fill="#fff"/><path d="M50.1,57.8a17.9,17.9,0,0,0,4.8,4.4,8.5,8.5,0,0,0,5.9,1.5l4.8-.9L61,64.6a25.5,25.5,0,0,1-4,1.4,7.8,7.8,0,0,1-2.2.2,4.5,4.5,0,0,1-2.2-.6A5.7,5.7,0,0,1,50.4,62a13,13,0,0,1-.3-2.1C50,59.2,50.1,58.4,50.1,57.8Zm0,0a10.2,10.2,0,0,0,.2,1.1c.1.3.1.6.2,1a15.2,15.2,0,0,0,.5,2,5.2,5.2,0,0,0,2.2,3.1,5.2,5.2,0,0,0,3.7.1,32.7,32.7,0,0,0,3.8-1.3l.3,1a7.2,7.2,0,0,1-3.5-.3,10.9,10.9,0,0,1-3-1.6A14.7,14.7,0,0,1,52,60.5,13.2,13.2,0,0,1,50.1,57.8Z" fill="#0f6da0"/><path d="M81.9,58.2a13.9,13.9,0,0,1,2,3.1c.6,1.1,1,2.3,1.5,3.4a64.9,64.9,0,0,1,2.3,7.1,61.9,61.9,0,0,1,1.5,7.3,53.1,53.1,0,0,1,.6,7.5,63.6,63.6,0,0,1-.6,7.5,43.3,43.3,0,0,0-.1,7.3,36.1,36.1,0,0,0,1.3,7.1c.7,2.3,1.6,4.6,2.3,7.1a29.5,29.5,0,0,1,.8,3.7l.6,3.7a32.5,32.5,0,0,1,.4,3.8,7.9,7.9,0,0,1-.8,4.1,4.2,4.2,0,0,1-1.6,1.6l-1,.4-1,.2H86.2l-7.5-.3a57.9,57.9,0,0,1-7.5-.9,13.7,13.7,0,0,1-3.7-1.2l-.9-.6-.4-.4a1.7,1.7,0,0,1-.2-.5,3.8,3.8,0,0,1-.2-1,5.5,5.5,0,0,1,0-1,35.7,35.7,0,0,1,1.5-7.3c.7-2.4,1.5-4.7,2.4-7q-1.1,3.6-2,7.2a35.2,35.2,0,0,0-1.1,7.2,5.6,5.6,0,0,0,0,.9,2.9,2.9,0,0,0,.2.8c.1.4.6.7,1.1,1a12.8,12.8,0,0,0,3.4,1,56.7,56.7,0,0,0,7.3.7h11a3,3,0,0,0,2.4-1.4,6.6,6.6,0,0,0,.5-3.2,31,31,0,0,0-.4-3.6l-.6-3.7a28.1,28.1,0,0,0-.7-3.5c-.7-2.3-1.6-4.7-2.2-7.1a36.1,36.1,0,0,1-1.3-7.5,44.9,44.9,0,0,1,.2-7.6c.3-2.5.7-4.9.7-7.3A59.2,59.2,0,0,0,86.9,72a64.2,64.2,0,0,0-1.9-7.1c-.4-1.2-.8-2.3-1.3-3.5A13.8,13.8,0,0,0,81.9,58.2Z" fill="#0f6da0"/></svg>