<?xml version="1.0" encoding="utf-8"?>
<!-- Generator: Adobe Illustrator 21.0.2, SVG Export Plug-In . SVG Version: 6.00 Build 0)  -->
<svg version="1.1" id="Layer_1" xmlns="http://www.w3.org/2000/svg" xmlns:xlink="http://www.w3.org/1999/xlink" x="0px" y="0px"
	 viewBox="0 0 16 16" style="enable-background:new 0 0 16 16;" xml:space="preserve">
<style type="text/css">
	.st0{fill:#0D2E3D;}
	.st1{fill:#0F6CA0;}
	.st2{fill:#F7CE03;}
</style>
<circle class="st0" cx="8" cy="8" r="7.9"/>
<image style="overflow:visible;" width="1117" height="1021" xlink:href="../../../Loyal Rescue/Images/white dog.png"  transform="matrix(8.343237e-03 0 0 8.343237e-03 3.4034 3.2905)">
</image>
<path class="st1" d="M8.3,14.5C4,14.5,0.6,11,0.6,6.7c0-0.4,0-0.9,0.1-1.3C0.4,6.3,0.2,7.2,0.2,8.1c0,4.3,3.5,7.8,7.8,7.8
	c3.8,0,7-2.8,7.7-6.5C14.6,12.4,11.7,14.5,8.3,14.5z"/>
<path class="st2" d="M9.6,15.1c-4.4,0-7.9-3.5-7.9-7.9c0-2.8,1.5-5.3,3.7-6.7C2.3,1.6,0.1,4.5,0.1,8c0,4.4,3.5,7.9,7.9,7.9
	c1.5,0,3-0.4,4.2-1.2C11.4,15,10.5,15.1,9.6,15.1z"/>
</svg>
