<?xml version="1.0" encoding="utf-8"?>
<!-- Generator: Adobe Illustrator 21.0.2, SVG Export Plug-In . SVG Version: 6.00 Build 0)  -->
<svg version="1.1" id="Layer_1" xmlns="http://www.w3.org/2000/svg" xmlns:xlink="http://www.w3.org/1999/xlink" x="0px" y="0px"
	 viewBox="0 0 32 32" style="enable-background:new 0 0 32 32;" xml:space="preserve">
<style type="text/css">
	.st0{fill:#0D2E3D;}
	.st1{fill:#0F6CA0;}
	.st2{fill:#F7CE03;}
</style>
<circle class="st0" cx="15.9" cy="16" r="15.8"/>
<image style="overflow:visible;" width="1117" height="1021" xlink:href="../../../Loyal Rescue/Images/white dog.png"  transform="matrix(1.666526e-02 0 0 1.666526e-02 6.7745 6.6386)">
</image>
<path class="st1" d="M16.7,29C8,29,0.9,21.9,0.9,13.2c0-0.9,0.1-1.8,0.2-2.6c-0.6,1.7-0.9,3.5-0.9,5.4c0,8.7,7.1,15.8,15.8,15.8
	c7.8,0,14.3-5.7,15.5-13.1C29.3,24.7,23.5,29,16.7,29z"/>
<path class="st2" d="M19.2,30.2c-8.7,0-15.8-7.1-15.8-15.8c0-5.6,3-10.6,7.4-13.4C4.6,3.2,0.2,9.1,0.2,16c0,8.7,7.1,15.8,15.8,15.8
	c3.1,0,5.9-0.9,8.4-2.4C22.7,29.9,21,30.2,19.2,30.2z"/>
</svg>
