<svg id="Layer_1" data-name="Layer 1" xmlns="http://www.w3.org/2000/svg" width="0.7in" height="0.9in" viewBox="0 0 51.8 67.6"><title>logo-25</title><ellipse cx="25.9" cy="40" rx="25.9" ry="27.6" fill="#f6c53c"/><path d="M44.5,65.7c-3.3,0-10.5,0-11.2-1.6s1.6-8,1.6-8.2l-1.2,1.5c-1.9,2.3-3.9,1.5-6.1-1.1-2.8,8-5.1,8.8-9.1,7.8s-7.4-2.6-6.9-5.4,4.5-4.5,5.6-11.2c1.5-8.9,3.7-13.2,5.1-14.5h0l.3-.2h0l.2-.2a28.1,28.1,0,0,0,3.9,1.6c5.9,2,9.6.6,13.7-4.5l.6-.9c1.2,1.6,4.3,9.7,3.3,16.6s1.4,10.1,1.9,13.3S47.9,65.7,44.5,65.7Z" fill="#fff"/><path d="M44.5,65.7h-5a21.6,21.6,0,0,1-5-.7,2.9,2.9,0,0,1-1.1-.6,1.7,1.7,0,0,1-.3-1.2,13.2,13.2,0,0,1,.4-2.5,47,47,0,0,1,1.4-4.8H35l-1.5,1.8a3,3,0,0,1-2.1,1.1,3.6,3.6,0,0,1-2.2-.8,10.6,10.6,0,0,1-1.7-1.6h.2A24.7,24.7,0,0,1,25,62.2a5.7,5.7,0,0,1-2.5,2.1,6,6,0,0,1-3.3.1,17.5,17.5,0,0,1-6.1-2.3,3.7,3.7,0,0,1-1.8-2.7,4.8,4.8,0,0,1,1.2-3.1A21.8,21.8,0,0,0,16,51a32.3,32.3,0,0,0,1.5-6.2,45.7,45.7,0,0,1,1.6-6.3,26.6,26.6,0,0,1,1.2-3,10.1,10.1,0,0,1,1.8-2.7h0l.4-.2V33h0l-.4-.2.3-.2.3-.2h.2a29.3,29.3,0,0,0,4.8,1.9,12,12,0,0,0,5.1.5,9.3,9.3,0,0,0,4.6-2.2,20.7,20.7,0,0,0,3.5-3.8v0a19,19,0,0,1,1.9,4.5A34.8,34.8,0,0,1,44.2,38a27.8,27.8,0,0,1,.4,4.9c0,1.7-.4,3.3-.4,4.9a18.6,18.6,0,0,0,.4,4.9c.3,1.6.9,3.1,1.4,4.7a19.7,19.7,0,0,1,.5,2.4c.1.8.3,1.6.4,2.4a4.9,4.9,0,0,1-.2,2.4A2,2,0,0,1,44.5,65.7Zm0,0a2,2,0,0,0,2-1.1,4.9,4.9,0,0,0,.2-2.4c-.1-.8-.2-1.6-.4-2.4a19.6,19.6,0,0,0-.5-2.4c-.5-1.6-1.1-3.1-1.4-4.7a18.7,18.7,0,0,1-.4-4.9c.1-1.6.4-3.3.4-4.9A27.6,27.6,0,0,0,44,38a34.5,34.5,0,0,0-1.2-4.7,18.9,18.9,0,0,0-1.9-4.4h.2a20.9,20.9,0,0,1-3.5,3.9,9.7,9.7,0,0,1-4.7,2.3,12.4,12.4,0,0,1-5.3-.4,29.7,29.7,0,0,1-4.9-1.9h0v-.4h0l.3.2-.3.2-.3.2h0a9.7,9.7,0,0,0-1.7,2.6,26.1,26.1,0,0,0-1.2,3,54.7,54.7,0,0,0-1.6,6.2,32.6,32.6,0,0,1-1.5,6.3,22.2,22.2,0,0,1-3.5,5.4,4.4,4.4,0,0,0-1.1,2.8,3.3,3.3,0,0,0,1.6,2.5,17.2,17.2,0,0,0,5.9,2.2,5.7,5.7,0,0,0,3.1-.1,5.5,5.5,0,0,0,2.4-2,24.4,24.4,0,0,0,2.7-5.8v-.2h.1a10.4,10.4,0,0,0,1.7,1.6,3.5,3.5,0,0,0,2.1.8,2.9,2.9,0,0,0,2-1l1.5-1.8.3-.3v.4a46.8,46.8,0,0,0-1.4,4.8,13.1,13.1,0,0,0-.4,2.5c0,.4,0,.9.3,1.1a2.8,2.8,0,0,0,1.1.6,21.5,21.5,0,0,0,4.9.7Z" fill="#0f6da0"/><path d="M22.6,32.7c-1.4.7-4,4.8-5.6,15a17,17,0,0,1-4.2,8.6h0c-1.6,0-1.8-1.2-.9-2.7A14.8,14.8,0,0,0,13.2,44c0-11.4,5.8-11.7,7.1-12.9A9.6,9.6,0,0,0,22.6,32.7Z" fill="#fff"/><path d="M22.6,32.7a6.4,6.4,0,0,0-2,2.5,21.9,21.9,0,0,0-1.3,3,48.2,48.2,0,0,0-1.7,6.2,47.6,47.6,0,0,1-1.4,6.3,19.2,19.2,0,0,1-3.4,5.6h-.1l-.9-.2a1.2,1.2,0,0,1-.6-.7,2.5,2.5,0,0,1,.3-1.8,12.6,12.6,0,0,0,1.2-3.1A14.2,14.2,0,0,0,13,44h0V42c.1-.7.1-1.3.2-2a15.6,15.6,0,0,1,1.1-3.8,8.8,8.8,0,0,1,2.4-3.1L18.5,32a10,10,0,0,0,1.7-.9h0A9.8,9.8,0,0,0,22.6,32.7Zm0,0a9.8,9.8,0,0,1-2.4-1.5h0a10,10,0,0,1-1.7,1l-1.6,1.1a8.8,8.8,0,0,0-2.3,3.1,15.4,15.4,0,0,0-1.1,3.8c-.1.6-.1,1.3-.2,2v2h0a14.5,14.5,0,0,1-.2,6.8,12.9,12.9,0,0,1-1.2,3.2,2.2,2.2,0,0,0-.3,1.5c.1.5.7.6,1.2.7h-.1A18.9,18.9,0,0,0,16,50.7a47.6,47.6,0,0,0,1.4-6.3,44.7,44.7,0,0,1,1.8-6.2,22,22,0,0,1,1.3-3A6.5,6.5,0,0,1,22.6,32.7Z" fill="#0f6da0"/><path d="M26.9,3.3c2.8-.7,10.1-2.1,12.8,2s2.4,9.9,1.7,13.4,2.9,5.8-1.2,10.9S32.4,36,26.5,34.1s-7.3-3.6-7.9-6.1.1-5.1-2-8S8.1,8.1,26.9,3.3Z" fill="#fff" stroke="#0f6da0" stroke-miterlimit="10" stroke-width="0.53"/><path d="M47.7,7.2C44.9-1.4,37.5.8,35.6,2.6a6.3,6.3,0,0,1,4.2,2.5c2.7,4,2.4,9.9,1.7,13.4-.3,1.6.3,3,.6,4.6l.7.5c2.9.7,5-.7,5-4S50.6,15.7,47.7,7.2Z" fill="#fff"/><path d="M47.7,7.2a11.6,11.6,0,0,0-1.8-3.4,7,7,0,0,0-3-2.2,7.2,7.2,0,0,0-3.7-.3,6.9,6.9,0,0,0-3.4,1.5V2.4a7.8,7.8,0,0,1,2.8,1.2l1.1,1a9.8,9.8,0,0,1,.8,1.2A15.7,15.7,0,0,1,42,11.5a25,25,0,0,1-.1,5.9l-.2,1.4a5,5,0,0,0,0,1.4c.1.9.5,1.9.7,2.8h-.1l.5.3h1.8a3,3,0,0,0,2.1-1.1,4.1,4.1,0,0,0,.8-2.3,12.3,12.3,0,0,1,.1-1.3,7.2,7.2,0,0,1,.4-1.3,15.5,15.5,0,0,0,.8-2.5,10.1,10.1,0,0,0,.1-2.6A22.9,22.9,0,0,0,47.7,7.2Zm.1,0a28.5,28.5,0,0,1,1.3,5.1,10.6,10.6,0,0,1,0,2.7,13.5,13.5,0,0,1-.7,2.6,6.7,6.7,0,0,0-.3,1.2c-.1.4-.1.8-.1,1.3a4.6,4.6,0,0,1-.9,2.6A3.5,3.5,0,0,1,44.6,24H43.2l-.7-.2-.6-.4h-.1c-.2-.9-.5-1.9-.6-2.9a5.5,5.5,0,0,1,0-1.5l.3-1.4a23.2,23.2,0,0,0,.3-5.8,16.7,16.7,0,0,0-.5-2.9,12.6,12.6,0,0,0-1.1-2.7,5.5,5.5,0,0,0-1.9-2.1,7.5,7.5,0,0,0-2.7-1h-.4l.3-.3A7,7,0,0,1,39.1.8a7.2,7.2,0,0,1,3.9.4,7.3,7.3,0,0,1,3,2.5A12.6,12.6,0,0,1,47.8,7.2Z" fill="#0f6da0"/><path d="M18.5,28c-.5-2,.1-5.1-2-8s-4-5.6-2-9.5h-.5c-1.8,0-6.1,4.3-5,9.1s.8,11.4,4.7,11.4,5-1.1,5.3-1.4A7,7,0,0,1,18.5,28Z" fill="#fff"/><path d="M18.5,28c-.4-1.5-.3-3.1-.6-4.6a9.1,9.1,0,0,0-.7-2.2,14.7,14.7,0,0,0-1.2-2,12.8,12.8,0,0,1-2-4.2,7.9,7.9,0,0,1-.2-2.4,7.4,7.4,0,0,1,.6-2.3v.3a2,2,0,0,0-1.6.4,7,7,0,0,0-1.4,1.2,9.4,9.4,0,0,0-1.9,3.2,7.5,7.5,0,0,0-.3,3.7c.2,1.2.4,2.5.6,3.8s.3,2.5.6,3.8a6.8,6.8,0,0,0,1.5,3.4,2.6,2.6,0,0,0,1.7.7h1.9a7.4,7.4,0,0,0,3.6-1.3h0A7,7,0,0,1,18.5,28Zm0,0a7,7,0,0,0,.6,1.5h0a7.4,7.4,0,0,1-3.6,1.3H13.6a2.7,2.7,0,0,1-1.8-.7,6.9,6.9,0,0,1-1.7-3.5c-.3-1.3-.5-2.5-.7-3.8s-.4-2.5-.7-3.8a8,8,0,0,1,.3-3.9,9.4,9.4,0,0,1,2-3.4,7.5,7.5,0,0,1,1.5-1.3l.9-.4h1.3v.3a7,7,0,0,0-.7,2.1,7.5,7.5,0,0,0,.1,2.3,12.6,12.6,0,0,0,1.9,4.2,14.8,14.8,0,0,1,1.2,2,9.4,9.4,0,0,1,.7,2.2C18.3,24.9,18.2,26.5,18.5,28Z" fill="#0f6da0"/><path d="M21.6,42.4a4.8,4.8,0,0,0-.1,2.7,12.9,12.9,0,0,0,.9,2.6,33.7,33.7,0,0,0,2.7,4.9,24.3,24.3,0,0,0,3.4,4.3,4.5,4.5,0,0,0,2.2,1.2,2.4,2.4,0,0,0,2.1-.9,70,70,0,0,0,6.6-9,27.9,27.9,0,0,0,2.5-5,9.3,9.3,0,0,0,.6-5.5,9.1,9.1,0,0,1-.2,5.6,28,28,0,0,1-2.3,5.2A49.5,49.5,0,0,1,37,53.4c-1.1,1.5-2.2,3-3.5,4.5l-.6.5-.7.4-.8.2h-.8A5.2,5.2,0,0,1,28,57.5,21.7,21.7,0,0,1,24.6,53,33.6,33.6,0,0,1,22,47.9a13.3,13.3,0,0,1-.7-2.8A4.6,4.6,0,0,1,21.6,42.4Z" fill="#0f6da0"/><ellipse cx="24" cy="20.3" rx="1.9" ry="2.4" fill="#0f6da0"/><circle cx="23.8" cy="19.1" r="0.6" fill="#fff"/><ellipse cx="33" cy="18" rx="1.9" ry="2.4" transform="translate(-2.1 4.7) rotate(-7.8)" fill="#0f6da0"/><circle cx="32.6" cy="16.9" r="0.6" transform="translate(-2 4.6) rotate(-7.8)" fill="#fff"/><ellipse cx="30.1" cy="25" rx="2" ry="2.3" fill="#0f6da0"/><path d="M29.7,23.8c-.4.4-1,1.4-1.1.6s1-1.4,1.4-1.4,1,.2.5.4A2.3,2.3,0,0,0,29.7,23.8Z" fill="#fff"/><path d="M25,28.5a9.1,9.1,0,0,0,2.4,2.2,4.3,4.3,0,0,0,3,.7l2.4-.4-2.2.9-2,.7a2.9,2.9,0,0,1-2.2-.2,2.9,2.9,0,0,1-1.1-1.8,6.3,6.3,0,0,1-.1-1C25,29.2,25.1,28.8,25,28.5Zm0,0c0,.4.1.7.2,1a7.9,7.9,0,0,0,.3,1A2.5,2.5,0,0,0,26.6,32a2.6,2.6,0,0,0,1.8.1l1.9-.7v.5a4.3,4.3,0,0,1-3.3-.9A7.2,7.2,0,0,1,25,28.5Z" fill="#0f6da0"/><path d="M40.9,28.7A12.3,12.3,0,0,1,42.7,32a32.4,32.4,0,0,1,1.2,3.5,29.8,29.8,0,0,1,1,7.4,30.6,30.6,0,0,1-.3,3.7,21.7,21.7,0,0,0,0,3.6,17.6,17.6,0,0,0,.7,3.6c.3,1.2.8,2.3,1.2,3.5a14.6,14.6,0,0,1,.4,1.9l.3,1.8a16.3,16.3,0,0,1,.2,1.9,4,4,0,0,1-.4,2A2.3,2.3,0,0,1,45,66.1H39.4l-3.7-.5a6.9,6.9,0,0,1-1.8-.6l-.4-.3a1.4,1.4,0,0,1-.3-.5,2.8,2.8,0,0,1-.1-1,17.9,17.9,0,0,1,.8-3.7c.4-1.2.8-2.4,1.2-3.5a31.9,31.9,0,0,0-1.5,7.2,2.5,2.5,0,0,0,.1.8l.2.3.3.2a6.5,6.5,0,0,0,1.7.5l3.7.3h5.5a1.5,1.5,0,0,0,1.2-.7,6.2,6.2,0,0,0,0-3.4l-.3-1.8a14.2,14.2,0,0,0-.4-1.8c-.3-1.2-.8-2.3-1.1-3.5a18.5,18.5,0,0,1-.7-3.7,22.4,22.4,0,0,1,.1-3.8c.1-1.3.3-2.4.4-3.7a29.6,29.6,0,0,0-.8-7.3,32.1,32.1,0,0,0-1-3.6l-.7-1.7A6.9,6.9,0,0,0,40.9,28.7Z" fill="#0f6da0"/></svg>