<svg xmlns="http://www.w3.org/2000/svg"><symbol id="facebook" viewBox="0 0 144 144"><path fill="#fff" d="M102.1 27.5V3.8h-.8c-7.5 0-15-.1-22.4 0a28.4 28.4 0 0 0-14.3 3.7C56.4 12.4 52.7 20.1 52 29.3c-.5 5.8-.2 11.6-.2 17.3v2H38.1v24.6h13.7v69.3h28.9V73.1h19.4l2.5-24.5H80.7c0-.5-.1-.9-.1-1.2V34.2c0-4.4 2.3-6.6 6.7-6.6z"/><path d="M102.1 27.5H87.4c-4.4 0-6.7 2.2-6.7 6.6v13.2c0 .4.1.7.1 1.2h21.9L100.2 73H80.7v69.3H51.8V73.2H38.1V48.6h13.7v-2c.1-5.8-.2-11.6.2-17.3.7-9.2 4.4-16.9 12.6-21.8a28.4 28.4 0 0 1 14.3-3.8c7.5-.1 15 0 22.4 0h.8z"/></symbol><symbol id="instagram" viewBox="0 0 144 144"><path fill="#fff" d="M5.3 72.5c0 8.9-.1 17.8 0 26.7a44.5 44.5 0 0 0 .9 9.3 39.5 39.5 0 0 0 39.1 31.2h54.4a39.4 39.4 0 0 0 8.9-1c18.8-4.5 31-20 31.1-39.4s0-35.7 0-53.6a43.2 43.2 0 0 0-.9-9.1 39.6 39.6 0 0 0-39-31.3c-18.1-.1-36.3-.1-54.4.1a42.6 42.6 0 0 0-12.9 2C15.6 13.1 5.3 27.9 5.3 45.6c-.1 9 0 17.9 0 26.9z"/><path d="M5.3 72.5V45.6c0-17.7 10.4-32.5 27.1-38.2a42.6 42.6 0 0 1 12.9-2c18.1-.2 36.3-.1 54.4-.1a39.6 39.6 0 0 1 39 31.3 43.2 43.2 0 0 1 .9 9.1c.1 17.9.1 35.7 0 53.6s-12.2 34.9-31.1 39.4a39.4 39.4 0 0 1-8.9 1H45.3a39.5 39.5 0 0 1-39.1-31.2 44.5 44.5 0 0 1-.9-9.3c-.1-8.9 0-17.8 0-26.7zm67.1 55h26.9a31.2 31.2 0 0 0 6.6-.7 27 27 0 0 0 21.5-26.8c.1-18.4 0-36.8 0-55.1A27.4 27.4 0 0 0 100 17.5H44.8A27.4 27.4 0 0 0 17.5 45c-.1 18.4 0 36.8 0 55.1a27.4 27.4 0 0 0 27.4 27.4z"/><path fill="#fff" d="M72.4 127.5H44.9a27.4 27.4 0 0 1-27.4-27.4c0-18.4-.1-36.8 0-55.1a27.4 27.4 0 0 1 27.3-27.5H100a27.4 27.4 0 0 1 27.4 27.4c0 18.4.1 36.8 0 55.1a27 27 0 0 1-21.5 26.8 31.2 31.2 0 0 1-6.6.7zm36.7-55a36.6 36.6 0 1 0-36.6 36.7 36.8 36.8 0 0 0 36.6-36.8zm5-36.1a5.5 5.5 0 1 0-5.6 5.6 5.6 5.6 0 0 0 5.6-5.6z"/><path d="M109.1 72.4a36.6 36.6 0 1 1-36.8-36.5 36.8 36.8 0 0 1 36.8 36.5zm-12.2 0a24.4 24.4 0 1 0-24.5 24.5 24.4 24.4 0 0 0 24.5-24.5zm17.2-36a5.5 5.5 0 1 1-5.5-5.5 5.6 5.6 0 0 1 5.5 5.5z"/><path fill="#fff" d="M96.9 72.4a24.4 24.4 0 1 1-24.4-24.3 24.4 24.4 0 0 1 24.4 24.3z"/></symbol><symbol id="pinterest" viewBox="0 0 144 144"><path fill="#fff" d="M63.1 94.5l2.7 2.8a21 21 0 0 0 12.9 6.6c14.9 1.8 27-3.5 36.3-15.2 6.2-7.8 9.6-16.8 11.4-26.5 1.3-7 1.9-14.1.7-21.1-3.2-17.7-13.7-29.7-30.1-36.4C85.9.1 74.2-.4 62.5 1.8 44.7 5.2 30.8 14.2 22.3 30.6c-6.7 12.9-7.4 26.2-1.9 39.8 2.4 6 6.9 10.1 12.5 13.1 2.6 1.4 4 .8 4.9-2s1-4 1.6-6 0-3.7-1.2-5.5a33.8 33.8 0 0 1-3.9-7.3c-2.1-6-1.5-12.1-.1-18.2 2.5-10.3 8.3-18.4 17.4-23.8C62.9 14 75 13.1 87.3 17.2s18.4 12.3 19.7 24.5a74.6 74.6 0 0 1-.3 14.7A49.3 49.3 0 0 1 99 79c-3.5 5.3-7.9 9.4-14.4 10.6-10.9 2.1-18.5-6.5-15.9-16 1.7-6.1 3.5-12.2 5.2-18.4 1-3.7 2-7.4 1.8-11.3-.5-9.3-9.4-14.2-17.5-9.5-4.8 2.8-7.4 7.4-8.6 12.6a32.1 32.1 0 0 0 1 18.3 6.6 6.6 0 0 1 .2 3.8q-4.4 18.5-8.6 36.9c-1 4.5-2.3 9.1-2.6 13.6-.4 6.2.1 12.5.2 18.8a20.7 20.7 0 0 0 .7 4.4c.3 1.3 1.1 1.4 2 .5l1.5-1.8c7.4-9.9 12.8-20.7 15.3-32.8 1.2-4.5 2.5-9.1 3.8-14.2z"/><path d="M63.1 94.5c-1.3 5.1-2.6 9.7-3.6 14.4-2.5 12.2-8 22.9-15.3 32.8l-1.5 1.8c-.9.9-1.7.8-2-.5a20.7 20.7 0 0 1-.7-4.4c-.2-6.3-.6-12.6-.2-18.8.3-4.6 1.5-9.1 2.6-13.6q4.2-18.5 8.6-36.9a6.6 6.6 0 0 0-.2-3.8 32.1 32.1 0 0 1-1-18.3c1.3-5.3 3.8-9.8 8.6-12.6 8.1-4.7 17.1.1 17.5 9.5.2 3.9-.8 7.6-1.8 11.3-1.7 6.1-3.5 12.2-5.2 18.4-2.6 9.6 5 18.2 15.9 16C91.1 88.4 95.6 84.3 99 79a49.3 49.3 0 0 0 7.7-22.5 74.6 74.6 0 0 0 .3-14.7c-1.3-12.3-8.1-20.8-19.7-24.6S62.9 14 51.6 20.7c-9.2 5.4-14.9 13.5-17.4 23.8-1.5 6-2 12.2.1 18.2a33.8 33.8 0 0 0 3.9 7.3c1.2 1.8 1.8 3.4 1.2 5.5s-.9 4-1.6 6-2.3 3.4-4.9 2c-5.6-3-10-7.1-12.5-13.1-5.5-13.5-4.8-26.9 1.9-39.8C30.8 14.2 44.7 5.2 62.5 1.8 74.2-.4 85.9.1 96.9 4.7c16.4 6.7 26.9 18.7 30.1 36.4 1.3 7 .7 14.1-.7 21.1-1.8 9.7-5.2 18.7-11.4 26.5-9.3 11.7-21.4 17-36.3 15.2a21 21 0 0 1-12.9-6.6z"/></symbol><symbol id="twitter" viewBox="0 0 144 144"><path fill="#fff" d="M129 32.1a35.2 35.2 0 0 0 11.5-15.6l-3.4 1.5-12.6 4.8a4.3 4.3 0 0 1-4.8-1.1c-7.2-6.6-15.9-8.7-25.3-7-13.9 2.6-24 15.3-23.7 28.2v7.3H70C49.5 48.6 31.8 41 17.1 26.5l-7.2-7c-6.6 15.4-4 28.4 9 39.4a36.7 36.7 0 0 1-12.7-3.4c.8 15 8.5 24.5 22.6 29.2-4 1-8 .7-12.2.6a29.1 29.1 0 0 0 10.3 14.4c4.9 3.7 10.5 5.4 16.9 6.1-12.9 9.7-27 13.3-42.6 12.4a5.5 5.5 0 0 0 1.5 1.2 96.6 96.6 0 0 0 18.2 8.1c12.3 3.9 24.8 4.2 37.4 2.8a74.5 74.5 0 0 0 34-12.7c19.1-12.9 30.6-31 35.7-53.3a98 98 0 0 0 2-19.7 2.9 2.9 0 0 1 1.3-2.5 62.3 62.3 0 0 0 12-12.4l.8-1.2c-5.2 1.5-10 3.2-15.1 3.6z"/><path d="M129 32.1c5.2-.4 10-2.1 15-3.5l-.8 1.2a62.3 62.3 0 0 1-12 12.4 2.9 2.9 0 0 0-1.3 2.5 98 98 0 0 1-2 19.7c-5.1 22.3-16.6 40.4-35.7 53.3a74.5 74.5 0 0 1-34 12.7c-12.6 1.4-25.2 1.2-37.4-2.8a96.6 96.6 0 0 1-18.2-8.1 5.5 5.5 0 0 1-1.5-1.2c15.6 1 29.7-2.7 42.6-12.4-6.3-.7-12-2.4-16.9-6.1a29.1 29.1 0 0 1-10.3-14.5c4.2.1 8.2.4 12.2-.6C14.6 80.1 7 70.5 6.2 55.5a36.7 36.7 0 0 0 12.7 3.4c-13-11-15.6-24-8.9-39.4l7.2 7C31.8 41 49.5 48.6 70 50.2h.7v-7.3c-.2-13 9.8-25.7 23.7-28.2 9.4-1.8 18.1.4 25.3 7a4.3 4.3 0 0 0 4.8 1.1l12.6-4.8 3.4-1.5A35.2 35.2 0 0 1 129 32.1z"/></symbol><symbol id="youtube" viewBox="0 0 144 144"><path fill="#fff" d="M72.6 24.1h-48C12 24.2 3.2 33 3.1 45.5q-.1 27.1 0 54.2C3.2 112.1 12 121 24.4 121h96.2c12.3 0 21.1-9 21.2-21.3.1-18.1.1-36.3-.1-54.4a23.3 23.3 0 0 0-2.1-9.4C135.8 27.8 129 24 120.2 24z"/><path d="M72.6 24.1h47.5c8.9 0 15.6 3.8 19.4 11.9a23.3 23.3 0 0 1 2.1 9.4c.2 18.1.2 36.3.1 54.4-.1 12.3-8.9 21.2-21.2 21.3H24.4c-12.4-.1-21.2-9-21.3-21.4q-.1-27.1.1-54.2c0-12.5 8.9-21.3 21.5-21.4zM58.8 43.9v52l39.4-26z"/><path fill="#fff" d="M58.8 43.9l39.4 26-39.4 26z"/></symbol></svg>