<?xml version="1.0" encoding="utf-8"?>
<!-- Generator: Adobe Illustrator 21.0.2, SVG Export Plug-In . SVG Version: 6.00 Build 0)  -->
<svg version="1.1" id="Layer_1" xmlns="http://www.w3.org/2000/svg" xmlns:xlink="http://www.w3.org/1999/xlink" x="0px" y="0px"
	 viewBox="0 0 64 64" style="enable-background:new 0 0 64 64;" xml:space="preserve">
<style type="text/css">
	.st0{fill:#0D2E3D;}
	.st1{fill:#0F6CA0;}
	.st2{fill:#F7CE03;}
</style>
<circle class="st0" cx="32" cy="31.9" r="31.8"/>
<image style="overflow:visible;" width="1117" height="1021" xlink:href="../../../Loyal Rescue/Images/white dog.png"  transform="matrix(3.360210e-02 0 0 3.360210e-02 13.5627 13.0108)">
</image>
<path class="st1" d="M33.5,58.1C16,58.1,1.8,43.9,1.8,26.3c0-1.8,0.2-3.6,0.4-5.3C1,24.4,0.3,28,0.3,31.9
	c0,17.5,14.2,31.8,31.8,31.8c15.7,0,28.8-11.4,31.3-26.5C59,49.4,47.3,58.1,33.5,58.1z"/>
<path class="st2" d="M38.5,60.6C21,60.6,6.8,46.4,6.8,28.8c0-11.4,6-21.3,14.9-26.9C9.2,6.2,0.2,18,0.2,32
	c0,17.5,14.2,31.8,31.8,31.8c6.2,0,12-1.8,16.9-4.8C45.6,60,42.2,60.6,38.5,60.6z"/>
</svg>
