<?xml version="1.0" encoding="utf-8"?>
<!-- Generator: Adobe Illustrator 21.0.2, SVG Export Plug-In . SVG Version: 6.00 Build 0)  -->
<svg version="1.1" id="Layer_1" xmlns="http://www.w3.org/2000/svg" xmlns:xlink="http://www.w3.org/1999/xlink" x="0px" y="0px"
	 viewBox="0 0 256 256" style="enable-background:new 0 0 256 256;" xml:space="preserve">
<style type="text/css">
	.st0{fill:#0D2E3D;}
	.st1{fill:#0F6CA0;}
	.st2{fill:#F7CE03;}
</style>
<circle class="st0" cx="127.7" cy="127.6" r="127.8"/>
<image style="overflow:visible;" width="1117" height="1021" xlink:href="../../../Loyal Rescue/Images/white dog.png"  transform="matrix(0.1352 0 0 0.1352 53.375 51.6114)">
</image>
<path class="st1" d="M133.8,233C63.2,233,6,175.8,6,105.2c0-7.3,0.6-14.4,1.8-21.4c-4.9,13.6-7.6,28.3-7.6,43.6
	c0,70.6,57.2,127.8,127.8,127.8c63.3,0,115.8-46,126-106.4C236.1,197.9,189,233,133.8,233z"/>
<path class="st2" d="M153.9,243.1c-70.6,0-127.8-57.2-127.8-127.8c0-45.7,24-85.7,60-108.3C35.8,24.1-0.3,71.8-0.3,127.9
	c0,70.6,57.2,127.8,127.8,127.8c24.9,0,48.2-7.1,67.8-19.5C182.3,240.7,168.4,243.1,153.9,243.1z"/>
</svg>
